<svg id="Layer_1" data-name="Layer 1" xmlns="http://www.w3.org/2000/svg" xmlns:xlink="http://www.w3.org/1999/xlink" viewBox="0 0 518.68 113.39"><defs><style>.cls-1{fill:#fff;}.cls-2{fill:url(#linear-gradient);}.cls-3{fill:#010101;}.cls-4{fill:url(#linear-gradient-2);}</style><linearGradient id="linear-gradient" x1="-21.18" y1="193.83" x2="33.1" y2="193.83" gradientTransform="matrix(2.83, 0, 0, -2.83, 39.8, 606.13)" gradientUnits="userSpaceOnUse"><stop offset="0" stop-color="#124a7e"/><stop offset="1" stop-color="#579ad3"/></linearGradient><linearGradient id="linear-gradient-2" x1="-10.61" y1="193.83" x2="22.53" y2="193.83" gradientTransform="matrix(2.83, 0, 0, -2.83, 39.8, 606.13)" gradientUnits="userSpaceOnUse"><stop offset="0" stop-color="#0d8686"/><stop offset="1" stop-color="#0ebab9"/></linearGradient></defs><path class="cls-1" d="M173.63,35.35a39.28,39.28,0,0,0-6-2.21,25.9,25.9,0,0,0-7.14-1,13.48,13.48,0,0,0-8.88,2.77,8.66,8.66,0,0,0-3.33,6.95,7.48,7.48,0,0,0,1.9,5.25,15.8,15.8,0,0,0,5,3.56c2.06,1,4.25,1.91,6.58,2.8q2.78,1,5.51,2.29a22.9,22.9,0,0,1,5,3.09,13.29,13.29,0,0,1,3.53,4.5A15.09,15.09,0,0,1,177,70a15.49,15.49,0,0,1-2.22,8.26,15,15,0,0,1-6.19,5.57,20.33,20.33,0,0,1-9.2,2,26.92,26.92,0,0,1-7.65-1,32.77,32.77,0,0,1-6-2.41q-2.58-1.38-4.08-2.33l1.82-3.16a32.84,32.84,0,0,0,9.67,4.66,20.62,20.62,0,0,0,5.87.87A17,17,0,0,0,165.66,81,12.84,12.84,0,0,0,171,77a11,11,0,0,0,2.1-6.92,10.13,10.13,0,0,0-2-6.51A15.21,15.21,0,0,0,166,59.45a57.17,57.17,0,0,0-6.58-2.85q-2.7-1-5.39-2.17a24.43,24.43,0,0,1-4.92-2.76,12.51,12.51,0,0,1-3.53-3.91,11,11,0,0,1-1.31-5.53,12.12,12.12,0,0,1,2.07-7,14,14,0,0,1,5.59-4.7A19.09,19.09,0,0,1,160,28.72a33.2,33.2,0,0,1,8,1,32.65,32.65,0,0,1,7.09,2.61Z"/><path class="cls-1" d="M191.55,29h34.73v3.72H195.43V55h27.76v3.72H195.43V81.41h32v3.71H191.55Z"/><path class="cls-1" d="M255.07,29a22.69,22.69,0,0,1,6.3.91,17.57,17.57,0,0,1,5.71,2.84,14.75,14.75,0,0,1,4.17,4.94,15.17,15.17,0,0,1,1.58,7.19,19.68,19.68,0,0,1-.95,6.12,14.38,14.38,0,0,1-3.09,5.34,15.31,15.31,0,0,1-5.55,3.79,21.9,21.9,0,0,1-8.41,1.42h-8.72V85.12h-3.89V29Zm-.48,28.84a17.82,17.82,0,0,0,7-1.19,11.37,11.37,0,0,0,4.37-3.08,11.72,11.72,0,0,0,2.26-4.15,15.55,15.55,0,0,0,.67-4.38,12.43,12.43,0,0,0-.91-4.74,11.66,11.66,0,0,0-2.66-3.91,12.78,12.78,0,0,0-4.2-2.69,14.75,14.75,0,0,0-5.47-1h-9.52V57.87Zm8.09,1.74,15.63,25.51h-4.52L258.08,59.68Z"/><path class="cls-1" d="M292.42,29h34.74v3.72H296.31V55h27.76v3.72H296.31V81.41h32v3.71H292.42Z"/><path class="cls-1" d="M390.21,86.46,345.79,36.62l1-.79.08,49.29H343.1V27.85h.24l44.41,50.24-1,.32L386.64,29h3.72V86.46Z"/><path class="cls-1" d="M408.29,29h3.88V85.12h-3.88Z"/><path class="cls-1" d="M425.58,29h36.87v3.72H445.88V85.12H442V32.75H425.58Z"/><path class="cls-1" d="M466.73,85.12l23.8-58.54h.31l23.79,58.54h-4.36l-20.7-52.37,2.7-1.51L470.62,85.12Zm11.5-22.2h25l1.11,3.64h-27Z"/><path class="cls-2" d="M113.39,56.69A56.71,56.71,0,1,1,96.78,16.61,56.7,56.7,0,0,1,113.39,56.69Z"/><path class="cls-3" d="M106.91,56.69A50.22,50.22,0,1,1,92.2,21.19,50.21,50.21,0,0,1,106.91,56.69Z"/><path class="cls-4" d="M103.67,56.69A47,47,0,1,1,89.91,23.48,47,47,0,0,1,103.67,56.69Z"/><path class="cls-3" d="M16.76,28.48a7.33,7.33,0,0,1-.35,1.87c-.22.94-.79,3.21-1.11,5.21A17.88,17.88,0,0,0,15.24,42a10,10,0,0,0,3,5.34,14.91,14.91,0,0,0,3.18,2.23,26.37,26.37,0,0,0,4.63,1.89,57.39,57.39,0,0,0,6.2,1.5c2.41.47,4.87.84,7.46,1.19,5.55.75,10.91,1.27,17,1.88h0c6,.61,11.48,1.16,17,1.95,2.6.37,5.09.77,7.52,1.27a58.92,58.92,0,0,1,6.32,1.63,21.68,21.68,0,0,1,8.2,4.49A12.05,12.05,0,0,1,98,68a10.66,10.66,0,0,1,1.14,2.79,13.17,13.17,0,0,1,.1,5.36,28.69,28.69,0,0,1-1.18,4.29c-.69,2-1.15,3.29-1.46,4a2.22,2.22,0,0,1-.23.47l-.06,0h0s0,0,0,0h0s0,0,0,0a2.7,2.7,0,0,1,.09-.51c.14-.68.53-2.2,1.06-4.15A31.43,31.43,0,0,0,98.39,76a12.61,12.61,0,0,0-.26-5A9.81,9.81,0,0,0,97,68.6a10.92,10.92,0,0,0-2-2.37,20.63,20.63,0,0,0-7.8-4.06A56.62,56.62,0,0,0,81,60.66c-2.4-.46-4.86-.84-7.45-1.19-5.53-.74-10.88-1.26-17-1.87h0c-6.06-.61-11.51-1.16-17.06-2-2.61-.37-5.1-.78-7.54-1.28a54.72,54.72,0,0,1-6.33-1.63,27.23,27.23,0,0,1-4.83-2.07,16,16,0,0,1-3.4-2.5,11.38,11.38,0,0,1-2.13-2.87,11.12,11.12,0,0,1-1-3.15,18,18,0,0,1,.32-6.72A42.76,42.76,0,0,1,16,30.24,6.38,6.38,0,0,1,16.76,28.48Z"/><path class="cls-3" d="M28.83,16.51a6.69,6.69,0,0,1-1,1.64C27.34,19,26,20.89,25,22.66a18.06,18.06,0,0,0-2.24,6,10.05,10.05,0,0,0,0,3,10.49,10.49,0,0,0,1,3A15,15,0,0,0,26,37.88a26.79,26.79,0,0,0,3.7,3.36,59.14,59.14,0,0,0,5.32,3.53c2.1,1.26,4.28,2.45,6.6,3.67C46.61,51,51.47,53.36,57,56l0,0c5.47,2.64,10.39,5,15.32,7.65,2.32,1.24,4.51,2.48,6.63,3.78a55.27,55.27,0,0,1,5.38,3.69,21.55,21.55,0,0,1,6.17,7,12,12,0,0,1,1.12,3.26,10.58,10.58,0,0,1,.11,3A13,13,0,0,1,90,89.51a28.79,28.79,0,0,1-2.57,3.64c-1.33,1.64-2.21,2.7-2.75,3.28a3.38,3.38,0,0,1-.38.36l-.06,0h0s0,0,0,0h0s0,0,0-.06a4.27,4.27,0,0,1,.25-.45c.37-.59,1.26-1.88,2.42-3.53a30.88,30.88,0,0,0,2.33-3.66,12.38,12.38,0,0,0,1.45-4.74,9.93,9.93,0,0,0-.18-2.7,10.9,10.9,0,0,0-1.08-2.92,20.86,20.86,0,0,0-6-6.48,56.71,56.71,0,0,0-5.3-3.53c-2.1-1.26-4.27-2.45-6.59-3.67-4.94-2.59-9.79-4.9-15.29-7.56l-.05,0c-5.49-2.65-10.42-5-15.37-7.67C38.6,48.57,36.4,47.33,34.28,46a55.66,55.66,0,0,1-5.4-3.7,26.79,26.79,0,0,1-3.82-3.6,15.79,15.79,0,0,1-2.34-3.51,11.26,11.26,0,0,1-1-3.43,11,11,0,0,1,.1-3.31,17.82,17.82,0,0,1,2.6-6.21,42.92,42.92,0,0,1,3.16-4.36C28.33,17,28.77,16.47,28.83,16.51Z"/></svg>
