<svg id="Layer_1" data-name="Layer 1" xmlns="http://www.w3.org/2000/svg" viewBox="0 0 518.58 113.39"><defs><style>.cls-1{fill:#fff;}</style></defs><path class="cls-1" d="M173.53,35.34a39.21,39.21,0,0,0-6-2.22,25.76,25.76,0,0,0-7.13-1,13.52,13.52,0,0,0-8.89,2.76,8.67,8.67,0,0,0-3.33,7,7.53,7.53,0,0,0,1.91,5.26,15.74,15.74,0,0,0,5,3.55c2.07,1,4.26,1.91,6.59,2.81,1.85.68,3.68,1.45,5.51,2.29a23,23,0,0,1,4.95,3.08,13.17,13.17,0,0,1,3.53,4.5,15,15,0,0,1,1.31,6.64,15.35,15.35,0,0,1-2.22,8.25,14.84,14.84,0,0,1-6.18,5.57,20.36,20.36,0,0,1-9.2,2,26.94,26.94,0,0,1-7.66-1,31.7,31.7,0,0,1-6-2.41q-2.58-1.38-4.09-2.33l1.83-3.16a31,31,0,0,0,4.24,2.53,32.3,32.3,0,0,0,5.43,2.13,20.56,20.56,0,0,0,5.87.87A17.1,17.1,0,0,0,165.56,81a12.86,12.86,0,0,0,5.31-4.07A10.94,10.94,0,0,0,173,70a10.16,10.16,0,0,0-2-6.52,15.3,15.3,0,0,0-5.07-4.07,57.91,57.91,0,0,0-6.58-2.84c-1.8-.69-3.6-1.41-5.4-2.18A24.62,24.62,0,0,1,149,51.65a12.4,12.4,0,0,1-3.53-3.91,10.91,10.91,0,0,1-1.31-5.53,12.13,12.13,0,0,1,2.06-7,14,14,0,0,1,5.59-4.7,19.13,19.13,0,0,1,8-1.78,32.68,32.68,0,0,1,8.05,1,32.23,32.23,0,0,1,7.1,2.6Z"/><path class="cls-1" d="M191.45,29h34.74v3.71H195.34V55H223.1v3.71H195.34V81.39h32v3.72H191.45Z"/><path class="cls-1" d="M255,29a22.73,22.73,0,0,1,6.3.9A17.69,17.69,0,0,1,267,32.77a14.42,14.42,0,0,1,4.16,4.94,15.13,15.13,0,0,1,1.59,7.18,20.08,20.08,0,0,1-.95,6.13,14.7,14.7,0,0,1-3.09,5.33,15.31,15.31,0,0,1-5.55,3.79,21.9,21.9,0,0,1-8.41,1.42H246V85.11h-3.88V29Zm-.48,28.83a17.87,17.87,0,0,0,7-1.18,11.35,11.35,0,0,0,4.36-3.09,11.52,11.52,0,0,0,2.26-4.14,15.28,15.28,0,0,0,.68-4.39,12.32,12.32,0,0,0-.92-4.74,11.49,11.49,0,0,0-2.65-3.91A12.75,12.75,0,0,0,261,33.72a14.52,14.52,0,0,0-5.47-1H246V57.85Zm8.09,1.74,15.62,25.52h-4.52L258,59.67Z"/><path class="cls-1" d="M292.33,29h34.74v3.71H296.22V55H324v3.71H296.22V81.39h32v3.72H292.33Z"/><path class="cls-1" d="M390.11,86.45,345.7,36.6l1-.79.08,49.3H343V27.83h.24l44.41,50.24-1,.32L386.54,29h3.73V86.45Z"/><path class="cls-1" d="M408.19,29h3.89V85.11h-3.89Z"/><path class="cls-1" d="M425.48,29h36.88v3.71H445.78V85.11H441.9V32.73H425.48Z"/><path class="cls-1" d="M466.64,85.11l23.79-58.54h.32l23.79,58.54h-4.36l-20.7-52.38,2.7-1.5L470.53,85.11Zm11.5-22.2h25l1.11,3.63h-27Z"/><path class="cls-1" d="M96.78,16.61a56.67,56.67,0,1,0,16.61,40.08A56.66,56.66,0,0,0,96.78,16.61ZM92.66,92.66a50.86,50.86,0,1,1,14.9-36A50.87,50.87,0,0,1,92.66,92.66Z"/><path class="cls-1" d="M13.44,26.22a8.11,8.11,0,0,1-.37,2c-.24,1-.86,3.48-1.21,5.63a19.44,19.44,0,0,0-.06,6.92,10.9,10.9,0,0,0,1.11,3,11,11,0,0,0,2.14,2.74A16.55,16.55,0,0,0,18.5,49a28.43,28.43,0,0,0,5,2.05,63.37,63.37,0,0,0,6.71,1.62c2.6.5,5.26.91,8.06,1.29,6,.81,11.8,1.37,18.41,2h0c6.54.65,12.41,1.25,18.4,2.1,2.81.4,5.5.85,8.13,1.39a59.94,59.94,0,0,1,6.84,1.76A23.34,23.34,0,0,1,99,66.07a13,13,0,0,1,2.34,2.9,11.4,11.4,0,0,1,1.22,3,14.22,14.22,0,0,1,.11,5.79,30.89,30.89,0,0,1-1.27,4.64c-.74,2.17-1.25,3.56-1.58,4.35a3,3,0,0,1-.25.51l-.06,0h0s0,0,0-.07,0-.29.1-.55c.15-.73.58-2.38,1.15-4.48a34.49,34.49,0,0,0,1-4.58,13.52,13.52,0,0,0-.28-5.36,10.06,10.06,0,0,0-1.18-2.68A11.59,11.59,0,0,0,98.08,67a22.32,22.32,0,0,0-8.44-4.39A63,63,0,0,0,83,61c-2.6-.5-5.25-.91-8-1.28-6-.81-11.77-1.37-18.35-2h0C49.94,57,44,56.45,38,55.59c-2.82-.4-5.51-.84-8.15-1.38A59.12,59.12,0,0,1,23,52.44a29.11,29.11,0,0,1-5.22-2.24,17.32,17.32,0,0,1-3.67-2.7,12,12,0,0,1-2.31-3.11A11.62,11.62,0,0,1,10.71,41a19.35,19.35,0,0,1,.34-7.27,47.35,47.35,0,0,1,1.6-5.6A7.27,7.27,0,0,1,13.44,26.22Z"/><path class="cls-1" d="M26.49,13.27a7,7,0,0,1-1,1.77c-.58.88-2,3-3.06,4.88A19.62,19.62,0,0,0,20,26.39a11.35,11.35,0,0,0,0,3.24,11,11,0,0,0,1.08,3.3,16.18,16.18,0,0,0,2.41,3.45,28.69,28.69,0,0,0,4,3.63,61.68,61.68,0,0,0,5.75,3.82c2.27,1.36,4.63,2.65,7.14,4C45.72,50.61,51,53.12,57,56l0,0c5.92,2.85,11.24,5.42,16.57,8.27,2.51,1.34,4.89,2.67,7.17,4.08a60.32,60.32,0,0,1,5.83,4A23.46,23.46,0,0,1,93.24,80a13.25,13.25,0,0,1,1.21,3.52,11.24,11.24,0,0,1,.11,3.26,14.2,14.2,0,0,1-1.87,5.48,30.28,30.28,0,0,1-2.79,3.92c-1.44,1.78-2.39,2.92-3,3.55a4.43,4.43,0,0,1-.41.4l-.07,0h0V100a5,5,0,0,1,.28-.48c.4-.64,1.35-2,2.61-3.82a33,33,0,0,0,2.52-4,13.6,13.6,0,0,0,1.57-5.13,10.38,10.38,0,0,0-.19-2.92,11.52,11.52,0,0,0-1.18-3.15,22.25,22.25,0,0,0-6.43-7,61.08,61.08,0,0,0-5.72-3.81c-2.27-1.36-4.63-2.65-7.13-4C67.44,63,62.2,60.47,56.24,57.6l0,0c-6-2.86-11.28-5.44-16.63-8.3-2.51-1.34-4.89-2.67-7.18-4.08a61.05,61.05,0,0,1-5.84-4,29.64,29.64,0,0,1-4.14-3.9,17.36,17.36,0,0,1-2.52-3.79,12.32,12.32,0,0,1-1.11-3.71,11.82,11.82,0,0,1,.1-3.58,19.33,19.33,0,0,1,2.81-6.72,47.2,47.2,0,0,1,3.42-4.72A7.37,7.37,0,0,1,26.49,13.27Z"/></svg>
